<svg xmlns="http://www.w3.org/2000/svg" viewBox="0 0 991.31 1212.46"><defs><style>.cls-1{isolation:isolate;}.cls-2{fill:#e6e6e6;mix-blend-mode:multiply;}.cls-3{fill:#fff;}.cls-4{fill:#8ba2c4;}.cls-5{fill:#d95959;}</style></defs><title>cahier</title><g class="cls-1"><g id="Calque_1" data-name="Calque 1"><rect class="cls-2" y="12" width="979.32" height="1200.46"/><rect class="cls-3" x="10.45" y="1.55" width="979.32" height="1200.46"/><path class="cls-4" d="M996.31,1209.07H13.91V5.5h982.4ZM15,1208H995.25V6.56H15Z" transform="translate(-5 -5.5)"/><rect class="cls-4" x="9.44" y="1167.14" width="981.34" height="1.06"/><rect class="cls-4" x="9.44" y="1131.77" width="981.34" height="1.06"/><rect class="cls-4" x="9.44" y="1096.4" width="981.34" height="1.06"/><rect class="cls-4" x="9.44" y="1061.03" width="981.34" height="1.06"/><rect class="cls-4" x="9.44" y="1025.67" width="981.34" height="1.06"/><rect class="cls-4" x="9.44" y="990.3" width="981.34" height="1.06"/><rect class="cls-4" x="9.44" y="954.93" width="981.34" height="1.06"/><rect class="cls-4" x="9.44" y="919.56" width="981.34" height="1.06"/><rect class="cls-4" x="9.44" y="884.19" width="981.34" height="1.06"/><rect class="cls-4" x="9.44" y="848.83" width="981.34" height="1.06"/><rect class="cls-4" x="9.44" y="813.46" width="981.34" height="1.06"/><rect class="cls-4" x="9.44" y="778.09" width="981.34" height="1.06"/><rect class="cls-4" x="9.44" y="742.72" width="981.34" height="1.06"/><rect class="cls-4" x="9.44" y="707.36" width="981.34" height="1.06"/><rect class="cls-4" x="9.44" y="671.99" width="981.34" height="1.06"/><rect class="cls-4" x="9.44" y="636.62" width="981.34" height="1.06"/><rect class="cls-4" x="9.44" y="601.25" width="981.34" height="1.06"/><rect class="cls-4" x="9.44" y="565.88" width="981.34" height="1.06"/><rect class="cls-4" x="9.44" y="530.52" width="981.34" height="1.06"/><rect class="cls-4" x="9.44" y="495.15" width="981.34" height="1.06"/><rect class="cls-4" x="9.44" y="459.78" width="981.34" height="1.06"/><rect class="cls-4" x="9.44" y="424.41" width="981.34" height="1.06"/><rect class="cls-4" x="9.44" y="389.04" width="981.34" height="1.06"/><rect class="cls-4" x="9.44" y="353.68" width="981.34" height="1.06"/><rect class="cls-4" x="9.44" y="318.31" width="981.34" height="1.06"/><rect class="cls-4" x="9.44" y="282.94" width="981.34" height="1.06"/><rect class="cls-4" x="9.44" y="247.57" width="981.34" height="1.06"/><rect class="cls-4" x="9.44" y="212.21" width="981.34" height="1.06"/><rect class="cls-4" x="9.44" y="176.84" width="981.34" height="1.06"/><rect class="cls-4" x="9.44" y="141.47" width="981.34" height="1.06"/><rect class="cls-4" x="9.44" y="106.1" width="981.34" height="1.06"/><rect class="cls-4" x="9.44" y="70.73" width="981.34" height="1.06"/><rect class="cls-4" x="9.44" y="35.37" width="981.34" height="1.06"/><rect class="cls-4" x="953.9" y="0.53" width="1.06" height="1202.51"/><rect class="cls-4" x="917.56" y="0.53" width="1.06" height="1202.51"/><rect class="cls-4" x="881.21" y="0.53" width="1.06" height="1202.51"/><rect class="cls-4" x="844.87" y="0.53" width="1.06" height="1202.51"/><rect class="cls-4" x="808.52" y="0.53" width="1.06" height="1202.51"/><rect class="cls-4" x="772.18" y="0.53" width="1.06" height="1202.51"/><rect class="cls-4" x="735.83" y="0.53" width="1.06" height="1202.51"/><rect class="cls-4" x="699.48" y="0.53" width="1.06" height="1202.51"/><rect class="cls-4" x="663.14" y="0.53" width="1.06" height="1202.51"/><rect class="cls-4" x="626.79" y="0.53" width="1.06" height="1202.51"/><rect class="cls-4" x="590.45" y="0.53" width="1.06" height="1202.51"/><rect class="cls-4" x="554.1" y="0.53" width="1.06" height="1202.51"/><rect class="cls-4" x="517.76" y="0.53" width="1.06" height="1202.51"/><rect class="cls-4" x="481.41" y="0.53" width="1.06" height="1202.51"/><rect class="cls-4" x="445.07" y="0.53" width="1.06" height="1202.51"/><rect class="cls-4" x="408.72" y="0.53" width="1.06" height="1202.51"/><rect class="cls-4" x="372.37" y="0.53" width="1.06" height="1202.51"/><rect class="cls-4" x="336.03" y="0.53" width="1.06" height="1202.51"/><rect class="cls-4" x="299.68" y="0.53" width="1.06" height="1202.51"/><rect class="cls-4" x="263.34" y="0.53" width="1.06" height="1202.51"/><rect class="cls-4" x="226.99" y="0.53" width="1.06" height="1202.51"/><rect class="cls-4" x="190.64" y="0.53" width="1.06" height="1202.51"/><rect class="cls-4" x="154.3" y="0.53" width="1.06" height="1202.51"/><rect class="cls-4" x="117.95" y="0.53" width="1.06" height="1202.51"/><rect class="cls-4" x="81.6" y="0.53" width="1.06" height="1202.51"/><rect class="cls-4" x="45.26" y="0.53" width="1.06" height="1202.51"/><polyline class="cls-5" points="154.01 1202.5 154.01 1.06 156.13 1.06 156.13 1202.5"/></g></g></svg>